Coordinates
version=1
nRows=29
nColumns=30
inDegrees=yes

Units are S.I. units (second, meters, Newtons, ...)
Angles are in degrees.

endheader
time	floatyaw	floatroll	floatpitch	floatx	floaty	floatz	pro_sup_l	deviation_l	flexion_l	cmc_flexion_l	cmc_abduction_l	mp_flexion_l	ip_flexion_l	2mcp_flexion_l	2mcp_abduction_l	2pm_flexion_l	2md_flexion_l	3mcp_flexion_l	3mcp_abduction_l	3pm_flexion_l	3md_flexion_l	4mcp_flexion_l	4mcp_abduction_l	4pm_flexion_l	4md_flexion_l	5mcp_flexion_l	5mcp_abduction_l	5pm_flexion_l	5md_flexion_l
-1.495000	-160.147433	-5.066637	-73.570646	0.078616	-0.180503	-0.020900	98.419823	-0.031915	-1.002321	15.473265	0.355973	-24.894080	-40.594985	30.092203	6.508754	41.637852	28.970756	23.889536	3.898041	43.044129	28.577585	13.370207	-4.353131	51.073732	35.128446	-0.085117	-7.299514	61.426628	41.844249
-1.485000	-160.147433	-5.066637	-73.570646	0.078615	-0.180504	-0.020898	98.413905	-0.030557	-1.002145	15.455474	0.374014	-24.882395	-40.575653	30.105816	6.511285	41.623773	28.969319	23.887517	3.899313	43.035047	28.575432	13.362048	-4.356671	51.085299	35.135072	-0.089287	-7.296493	61.417437	41.844608
-1.475000	-160.147433	-5.066637	-73.570646	0.078616	-0.180508	-0.020898	98.409650	-0.029769	-1.003083	15.436570	0.374329	-24.873143	-40.556759	30.111354	6.513386	41.615767	28.973388	23.885778	3.900455	43.023327	28.572977	13.353806	-4.360693	51.093742	35.138383	-0.099313	-7.290296	61.408022	41.844947
-1.465000	-160.147433	-5.066637	-73.570646	0.078619	-0.180513	-0.020901	98.406364	-0.030339	-1.004770	15.419312	0.359611	-24.869050	-40.543456	30.110458	6.513746	41.615378	28.980603	23.883414	3.901390	43.012610	28.570445	13.346630	-4.364826	51.098726	35.138360	-0.113620	-7.282098	61.399421	41.844729
-1.455000	-160.147433	-5.066637	-73.570646	0.078623	-0.180518	-0.020907	98.403573	-0.032557	-1.006893	15.406555	0.339638	-24.871314	-40.539096	30.106089	6.512301	41.622573	28.988832	23.880538	3.902048	43.006462	28.568983	13.342444	-4.368931	51.100804	35.136100	-0.127972	-7.273991	61.392931	41.843876
-1.445000	-160.147433	-5.066637	-73.570646	0.078625	-0.180522	-0.020914	98.401560	-0.035922	-1.009111	15.399990	0.325250	-24.878952	-40.544478	30.101337	6.510268	41.634914	28.995851	23.878369	3.902413	43.006077	28.569206	13.343020	-4.373011	51.100733	35.132913	-0.137699	-7.268019	61.389531	41.842307
-1.435000	-160.147433	-5.066637	-73.570646	0.078626	-0.180523	-0.020920	98.401122	-0.039325	-1.010896	15.399247	0.322883	-24.889150	-40.557730	30.098343	6.509532	41.647559	28.999286	23.878199	3.902577	43.009692	28.570569	13.348694	-4.377051	51.098988	35.129650	-0.140242	-7.265247	61.389464	41.839652
-1.425000	-160.147433	-5.066637	-73.570646	0.078625	-0.180521	-0.020924	98.402849	-0.041603	-1.011655	15.402108	0.332645	-24.898658	-40.575090	30.097869	6.511744	41.654755	28.997373	23.880191	3.902766	43.014122	28.572042	13.357704	-4.380929	51.096029	35.126709	-0.136282	-7.265399	61.392346	41.835451
-1.415000	-160.147433	-5.066637	-73.570646	0.078623	-0.180516	-0.020926	98.406576	-0.042076	-1.011109	15.405751	0.349928	-24.905487	-40.592381	30.099621	6.517580	41.652450	28.990157	23.883055	3.903284	43.017157	28.573288	13.366748	-4.384441	51.093028	35.124431	-0.128969	-7.267315	61.397751	41.829687
-1.405000	-160.147433	-5.066637	-73.570646	0.078621	-0.180510	-0.020925	98.411436	-0.040736	-1.009573	15.408150	0.368479	-24.909796	-40.606514	30.102883	6.526428	41.640622	28.980122	23.884800	3.904338	43.019041	28.575215	13.372480	-4.387377	51.092112	35.123326	-0.122059	-7.269870	61.405686	41.823144
-1.395000	-160.147433	-5.066637	-73.570646	0.078619	-0.180505	-0.020923	98.416369	-0.038113	-1.007783	15.408617	0.382908	-24.913447	-40.616244	30.106917	6.536623	41.623668	28.971480	23.883845	3.905801	43.022090	28.579467	13.372998	-4.389554	51.095507	35.123844	-0.118233	-7.272679	61.416343	41.817220
-1.385000	-160.147433	-5.066637	-73.570646	0.078616	-0.180503	-0.020920	98.420464	-0.035069	-1.006332	15.407234	0.390157	-24.918612	-40.621889	30.110997	6.546121	41.608330	28.968267	23.879651	3.907158	43.028956	28.587328	13.368463	-4.390796	51.104033	35.125984	-0.118408	-7.276036	61.429208	41.813368
-1.375000	-160.147433	-5.066637	-73.570646	0.078612	-0.180503	-0.020918	98.422806	-0.032720	-1.005189	15.403821	0.390410	-24.926447	-40.624336	30.114384	6.553311	41.600336	28.972415	23.872583	3.907739	43.040971	28.598961	13.360610	-4.390919	51.116205	35.129219	-0.122016	-7.280223	61.442391	41.812673
-1.365000	-160.147433	-5.066637	-73.570646	0.078609	-0.180503	-0.020918	98.422116	-0.032363	-1.003717	15.397399	0.387423	-24.936676	-40.624094	30.116510	6.557562	41.601917	28.983105	23.863368	3.907115	43.057755	28.613521	13.351612	-4.389781	51.128853	35.132916	-0.127714	-7.284843	61.453012	41.815859
-1.355000	-160.147433	-5.066637	-73.570646	0.078604	-0.180503	-0.020919	98.416805	-0.035159	-1.001219	15.386627	0.387528	-24.948208	-40.621124	30.117310	6.559300	41.611417	28.997672	23.852654	3.905323	43.078083	28.629956	13.343066	-4.387399	51.138926	35.136876	-0.134054	-7.288785	61.458528	41.823440
-1.345000	-160.147433	-5.066637	-73.570646	0.078600	-0.180503	-0.020921	98.405671	-0.041596	-0.997548	15.370922	0.396959	-24.960155	-40.615555	30.117443	6.559633	41.624646	29.013181	23.840970	3.902751	43.100938	28.647670	13.335632	-4.384094	51.145119	35.141480	-0.139942	-7.290809	61.458039	41.835550
-1.335000	-160.147433	-5.066637	-73.570646	0.078596	-0.180502	-0.020924	98.388893	-0.051049	-0.993331	15.351448	0.418531	-24.972295	-40.608563	30.118269	6.559739	41.636752	29.027465	23.828999	3.899843	43.125623	28.666433	13.329368	-4.380509	51.148170	35.147246	-0.144801	-7.290212	61.452710	41.851465
-1.325000	-160.147433	-5.066637	-73.570646	0.078593	-0.180502	-0.020925	98.368630	-0.061773	-0.989616	15.331227	0.449522	-24.984606	-40.602511	30.121531	6.560327	41.643714	29.039161	23.817860	3.896899	43.150881	28.685605	13.324366	-4.377450	51.149807	35.154151	-0.148481	-7.287090	61.445224	41.869311
-1.315000	-160.147433	-5.066637	-73.570646	0.078590	-0.180503	-0.020925	98.348706	-0.071434	-0.987222	15.314129	0.482255	-24.996344	-40.599983	30.128694	6.561436	41.643255	29.047247	23.809034	3.894079	43.174133	28.703448	13.321082	-4.375577	51.151367	35.161298	-0.151051	-7.282188	61.438750	41.886399
-1.305000	-160.147433	-5.066637	-73.570646	0.078588	-0.180505	-0.020923	98.333478	-0.077868	-0.986207	15.303231	0.507284	-25.005548	-40.602247	30.140125	6.562666	41.635271	29.050823	23.803829	3.891526	43.191984	28.717333	13.320110	-4.375139	51.153122	35.167218	-0.152582	-7.276638	61.435857	41.900070
-1.295000	-160.147433	-5.066637	-73.570646	0.078587	-0.180504	-0.020920	98.326498	-0.079673	-0.985720	15.299479	0.517315	-25.009456	-40.608168	30.154632	6.563654	41.621653	29.049328	23.802635	3.889437	43.201916	28.724806	13.321639	-4.375874	51.154503	35.170527	-0.152968	-7.271736	61.437603	41.908469
-1.285000	-160.147433	-5.066637	-73.570646	0.078588	-0.180500	-0.020916	98.329710	-0.076330	-0.984289	15.301442	0.509524	-25.005568	-40.614351	30.169778	6.564408	41.605430	29.042898	23.804429	3.888030	43.203877	28.724817	13.325103	-4.377140	51.154703	35.170472	-0.151818	-7.268647	61.443027	41.910745
-1.275000	-160.147433	-5.066637	-73.570646	0.078591	-0.180490	-0.020912	98.343376	-0.067952	-0.980386	15.306227	0.485604	-24.992771	-40.616518	30.182799	6.565239	41.589680	29.032679	23.806809	3.887457	43.200672	28.718406	13.329306	-4.378196	51.153195	35.167120	-0.148466	-7.267983	61.449393	41.906725
-1.265000	-160.147433	-5.066637	-73.570646	0.078596	-0.180475	-0.020906	98.366289	-0.055066	-0.973058	15.310956	0.450733	-24.972003	-40.611383	30.191536	6.566384	41.576918	29.021080	23.806554	3.887752	43.197021	28.708683	13.332888	-4.378559	51.150039	35.161306	-0.142176	-7.269482	61.453196	41.896540
-1.255000	-160.147433	-5.066637	-73.570646	0.078602	-0.180455	-0.020899	98.395717	-0.038770	-0.962321	15.313898	0.412502	-24.946276	-40.598052	30.195010	6.567633	41.569010	29.011631	23.800610	3.888854	43.197658	28.699991	13.334813	-4.378247	51.145882	35.154435	-0.132634	-7.272051	61.451464	41.880644
-1.245000	-160.147433	-5.066637	-73.570646	0.078610	-0.180431	-0.020891	98.427162	-0.021096	-0.949152	15.314706	0.379540	-24.920035	-40.578352	30.193656	6.568248	41.566988	29.007920	23.787356	3.890664	43.204993	28.696252	13.334629	-4.377755	51.141529	35.148096	-0.120676	-7.274230	61.442758	41.860337
-1.235000	-160.147433	-5.066637	-73.570646	0.078617	-0.180408	-0.020884	98.454689	-0.004967	-0.935141	15.313879	0.359452	-24.898063	-40.556133	30.189259	6.567257	41.570453	29.011758	23.767721	3.893077	43.217364	28.699067	13.332473	-4.377733	51.137256	35.143544	-0.108727	-7.274852	61.427648	41.838366
-1.225000	-160.147433	-5.066637	-73.570646	0.078622	-0.180390	-0.020877	98.472394	0.006623	-0.922042	15.312116	0.356803	-24.884424	-40.536148	30.184468	6.563964	41.577231	29.021789	23.745435	3.895973	43.229261	28.706740	13.328895	-4.378529	51.132471	35.141294	-0.100327	-7.273533	61.408716	41.818954
-1.215000	-160.147433	-5.066637	-73.570646	0.078626	-0.180377	-0.020872	98.476675	0.011885	-0.911422	15.310183	0.372044	-24.881924	-40.523183	30.181901	6.558382	41.584015	29.033690	23.725946	3.899225	43.233901	28.714989	13.324640	-4.379931	51.126132	35.141016	-0.098689	-7.270822	61.390163	41.806762
